<svg id="Layer_1" enable-background="new 0 0 512 512" viewBox="0 0 512 512" xmlns="http://www.w3.org/2000/svg"><g id="Layer_2_00000053538489266508801050000002354128358590845571_"><g id="key"><path d="m489.4 98.3c-24.4-77.8-107.8-118.2-183.1-88.6-74 29-108.2 115.1-74.5 187.7 1.6 3.4 1.9 5.4-1.2 8.3-10.2 9.7-19.9 19.8-29.9 29.7-57.1 57.2-114.2 114.5-171.3 171.7-17.2 17.3-17.3 43.9-.4 60.6 16.7 16.6 42.7 16.3 60.1-.8 3.4-3.4 6.4-7.2 10.5-12.1l5.3 5.3c14.8 14.9 29.6 29.8 44.5 44.6 9.3 9.2 22.1 9.9 31 1.1 25.2-24.9 50.2-49.9 75.1-75.2 8-8.1 7.8-20.6.1-29.4-2.1-2.5-4.6-4.7-6.9-7-14.4-14.2-28.8-28.3-43.6-42.9 1.5-1.7 2-2.5 2.7-3.2 27.7-27.8 55.4-55.7 83-83.5 2.5-2.5 4.3-2 7-.7 29.2 13.7 59.7 17 91.1 9.5 77.9-18.6 124.2-99.3 100.5-175.1zm-132.3 93.6c-28.8.5-52.7-23.1-53.3-52.5s23.2-53.6 53-54.1c28.5-.5 52.7 23.3 53.3 52.6.7 29.5-22.9 53.5-53 54z" fill="#ff2147"/></g></g></svg>